<mxfile host="app.diagrams.net" modified="2021-01-21T19:33:01.886Z" agent="5.0 (Macintosh; Intel Mac OS X 10_15_7) AppleWebKit/605.1.15 (KHTML, like Gecko) Version/14.0 Safari/605.1.15" etag="ZJhAV1v6m69lb3dghCZY" version="14.1.8" type="github">
  <diagram id="d2a-44wdQmMBGHiSi4Wa" name="Page-1">
    <mxGraphModel dx="1351" dy="946" grid="1" gridSize="10" guides="1" tooltips="1" connect="1" arrows="1" fold="1" page="1" pageScale="1" pageWidth="850" pageHeight="1100" math="0" shadow="0">
      <root>
        <mxCell id="0" />
        <mxCell id="1" parent="0" />
        <mxCell id="EAhvlWzYIKwALGRt6ynT-8" style="rounded=0;orthogonalLoop=1;jettySize=auto;html=1;exitX=0.75;exitY=0;exitDx=0;exitDy=0;entryX=0.5;entryY=1;entryDx=0;entryDy=0;endArrow=none;endFill=0;" edge="1" parent="1" source="EAhvlWzYIKwALGRt6ynT-1" target="EAhvlWzYIKwALGRt6ynT-4">
          <mxGeometry relative="1" as="geometry" />
        </mxCell>
        <mxCell id="EAhvlWzYIKwALGRt6ynT-1" value="用户" style="rounded=0;whiteSpace=wrap;html=1;" vertex="1" parent="1">
          <mxGeometry x="385" y="390" width="80" height="40" as="geometry" />
        </mxCell>
        <mxCell id="EAhvlWzYIKwALGRt6ynT-4" value="管理员" style="rounded=0;whiteSpace=wrap;html=1;" vertex="1" parent="1">
          <mxGeometry x="700" y="180" width="80" height="40" as="geometry" />
        </mxCell>
        <mxCell id="EAhvlWzYIKwALGRt6ynT-5" value="系统" style="rounded=0;whiteSpace=wrap;html=1;" vertex="1" parent="1">
          <mxGeometry x="70" y="180" width="80" height="40" as="geometry" />
        </mxCell>
        <mxCell id="EAhvlWzYIKwALGRt6ynT-6" value="官方组织" style="rounded=0;whiteSpace=wrap;html=1;" vertex="1" parent="1">
          <mxGeometry x="70" y="600" width="80" height="40" as="geometry" />
        </mxCell>
        <mxCell id="EAhvlWzYIKwALGRt6ynT-7" value="专栏" style="rounded=0;whiteSpace=wrap;html=1;" vertex="1" parent="1">
          <mxGeometry x="700" y="600" width="80" height="40" as="geometry" />
        </mxCell>
        <mxCell id="EAhvlWzYIKwALGRt6ynT-9" style="rounded=0;orthogonalLoop=1;jettySize=auto;html=1;exitX=0.75;exitY=1;exitDx=0;exitDy=0;entryX=0.5;entryY=0;entryDx=0;entryDy=0;endArrow=none;endFill=0;" edge="1" parent="1" source="EAhvlWzYIKwALGRt6ynT-1" target="EAhvlWzYIKwALGRt6ynT-7">
          <mxGeometry relative="1" as="geometry">
            <mxPoint x="475" y="530" as="sourcePoint" />
            <mxPoint x="720" y="380" as="targetPoint" />
          </mxGeometry>
        </mxCell>
        <mxCell id="EAhvlWzYIKwALGRt6ynT-11" style="rounded=0;orthogonalLoop=1;jettySize=auto;html=1;entryX=0.25;entryY=0;entryDx=0;entryDy=0;endArrow=none;endFill=0;exitX=0.5;exitY=1;exitDx=0;exitDy=0;" edge="1" parent="1" source="EAhvlWzYIKwALGRt6ynT-5" target="EAhvlWzYIKwALGRt6ynT-1">
          <mxGeometry relative="1" as="geometry">
            <mxPoint x="140" y="220" as="sourcePoint" />
            <mxPoint x="405" y="390" as="targetPoint" />
          </mxGeometry>
        </mxCell>
        <mxCell id="EAhvlWzYIKwALGRt6ynT-12" style="rounded=0;orthogonalLoop=1;jettySize=auto;html=1;exitX=0.75;exitY=0;exitDx=0;exitDy=0;entryX=0.5;entryY=1;entryDx=0;entryDy=0;endArrow=none;endFill=0;" edge="1" parent="1">
          <mxGeometry relative="1" as="geometry">
            <mxPoint x="150" y="600" as="sourcePoint" />
            <mxPoint x="415" y="430" as="targetPoint" />
          </mxGeometry>
        </mxCell>
        <mxCell id="EAhvlWzYIKwALGRt6ynT-16" value="" style="endArrow=classic;html=1;" edge="1" parent="1">
          <mxGeometry width="50" height="50" relative="1" as="geometry">
            <mxPoint x="400" y="370" as="sourcePoint" />
            <mxPoint x="330" y="330" as="targetPoint" />
          </mxGeometry>
        </mxCell>
        <mxCell id="EAhvlWzYIKwALGRt6ynT-17" value="1.填写注册信息" style="text;html=1;strokeColor=none;fillColor=none;align=center;verticalAlign=middle;whiteSpace=wrap;rounded=0;rotation=30;" vertex="1" parent="1">
          <mxGeometry x="330" y="330" width="90" height="20" as="geometry" />
        </mxCell>
        <mxCell id="EAhvlWzYIKwALGRt6ynT-23" value="" style="endArrow=classic;html=1;edgeStyle=orthogonalEdgeStyle;exitX=0.75;exitY=0;exitDx=0;exitDy=0;entryX=0.25;entryY=0;entryDx=0;entryDy=0;" edge="1" parent="1" source="EAhvlWzYIKwALGRt6ynT-5" target="EAhvlWzYIKwALGRt6ynT-5">
          <mxGeometry width="50" height="50" relative="1" as="geometry">
            <mxPoint x="120" y="160" as="sourcePoint" />
            <mxPoint x="170" y="110" as="targetPoint" />
            <Array as="points">
              <mxPoint x="130" y="145" />
              <mxPoint x="90" y="145" />
            </Array>
          </mxGeometry>
        </mxCell>
        <mxCell id="EAhvlWzYIKwALGRt6ynT-24" value="2.记录" style="text;html=1;strokeColor=none;fillColor=none;align=center;verticalAlign=middle;whiteSpace=wrap;rounded=0;" vertex="1" parent="1">
          <mxGeometry x="90" y="70" width="40" height="20" as="geometry" />
        </mxCell>
        <mxCell id="EAhvlWzYIKwALGRt6ynT-25" value="" style="endArrow=classic;html=1;" edge="1" parent="1">
          <mxGeometry width="50" height="50" relative="1" as="geometry">
            <mxPoint x="110" y="230" as="sourcePoint" />
            <mxPoint x="160" y="260" as="targetPoint" />
          </mxGeometry>
        </mxCell>
        <mxCell id="EAhvlWzYIKwALGRt6ynT-26" value="3.发送短信" style="text;html=1;strokeColor=none;fillColor=none;align=center;verticalAlign=middle;whiteSpace=wrap;rounded=0;rotation=30;" vertex="1" parent="1">
          <mxGeometry x="80" y="240" width="90" height="20" as="geometry" />
        </mxCell>
        <mxCell id="EAhvlWzYIKwALGRt6ynT-27" value="" style="endArrow=classic;html=1;" edge="1" parent="1">
          <mxGeometry width="50" height="50" relative="1" as="geometry">
            <mxPoint x="320" y="320" as="sourcePoint" />
            <mxPoint x="250" y="280" as="targetPoint" />
          </mxGeometry>
        </mxCell>
        <mxCell id="EAhvlWzYIKwALGRt6ynT-28" value="4.提交短信" style="text;html=1;strokeColor=none;fillColor=none;align=center;verticalAlign=middle;whiteSpace=wrap;rounded=0;rotation=30;" vertex="1" parent="1">
          <mxGeometry x="250" y="280" width="90" height="20" as="geometry" />
        </mxCell>
        <mxCell id="EAhvlWzYIKwALGRt6ynT-31" value="5.验证&lt;span style=&quot;color: rgba(0 , 0 , 0 , 0) ; font-family: monospace ; font-size: 0px&quot;&gt;%3CmxGraphModel%3E%3Croot%3E%3CmxCell%20id%3D%220%22%2F%3E%3CmxCell%20id%3D%221%22%20parent%3D%220%22%2F%3E%3CmxCell%20id%3D%222%22%20value%3D%222.%E8%AE%B0%E5%BD%95%22%20style%3D%22text%3Bhtml%3D1%3BstrokeColor%3Dnone%3BfillColor%3Dnone%3Balign%3Dcenter%3BverticalAlign%3Dmiddle%3BwhiteSpace%3Dwrap%3Brounded%3D0%3B%22%20vertex%3D%221%22%20parent%3D%221%22%3E%3CmxGeometry%20x%3D%2290%22%20y%3D%2290%22%20width%3D%2240%22%20height%3D%2220%22%20as%3D%22geometry%22%2F%3E%3C%2FmxCell%3E%3C%2Froot%3E%3C%2FmxGraphModel%3E&lt;/span&gt;" style="text;html=1;strokeColor=none;fillColor=none;align=center;verticalAlign=middle;whiteSpace=wrap;rounded=0;" vertex="1" parent="1">
          <mxGeometry x="90" y="90" width="40" height="20" as="geometry" />
        </mxCell>
        <mxCell id="EAhvlWzYIKwALGRt6ynT-32" value="6.注册" style="text;html=1;strokeColor=none;fillColor=none;align=center;verticalAlign=middle;whiteSpace=wrap;rounded=0;" vertex="1" parent="1">
          <mxGeometry x="90" y="110" width="40" height="20" as="geometry" />
        </mxCell>
        <mxCell id="EAhvlWzYIKwALGRt6ynT-34" value="7.注册成功 登录" style="text;html=1;strokeColor=none;fillColor=none;align=center;verticalAlign=middle;whiteSpace=wrap;rounded=0;rotation=30;" vertex="1" parent="1">
          <mxGeometry x="160" y="290" width="90" height="20" as="geometry" />
        </mxCell>
        <mxCell id="EAhvlWzYIKwALGRt6ynT-35" value="" style="endArrow=classic;html=1;" edge="1" parent="1">
          <mxGeometry width="50" height="50" relative="1" as="geometry">
            <mxPoint x="190" y="280" as="sourcePoint" />
            <mxPoint x="240" y="310" as="targetPoint" />
          </mxGeometry>
        </mxCell>
        <mxCell id="EAhvlWzYIKwALGRt6ynT-36" value="" style="endArrow=classic;html=1;" edge="1" parent="1">
          <mxGeometry width="50" height="50" relative="1" as="geometry">
            <mxPoint x="465" y="397.5" as="sourcePoint" />
            <mxPoint x="465" y="422.5" as="targetPoint" />
            <Array as="points">
              <mxPoint x="512" y="397.5" />
              <mxPoint x="512" y="422.5" />
            </Array>
          </mxGeometry>
        </mxCell>
        <mxCell id="EAhvlWzYIKwALGRt6ynT-37" value="8.交互" style="text;html=1;strokeColor=none;fillColor=none;align=center;verticalAlign=middle;whiteSpace=wrap;rounded=0;" vertex="1" parent="1">
          <mxGeometry x="500" y="390" width="80" height="20" as="geometry" />
        </mxCell>
        <mxCell id="EAhvlWzYIKwALGRt6ynT-38" value="9.举报" style="text;html=1;strokeColor=none;fillColor=none;align=center;verticalAlign=middle;whiteSpace=wrap;rounded=0;rotation=-30;" vertex="1" parent="1">
          <mxGeometry x="450" y="330" width="90" height="20" as="geometry" />
        </mxCell>
        <mxCell id="EAhvlWzYIKwALGRt6ynT-39" value="" style="endArrow=classic;html=1;" edge="1" parent="1">
          <mxGeometry width="50" height="50" relative="1" as="geometry">
            <mxPoint x="465" y="370" as="sourcePoint" />
            <mxPoint x="550" y="320" as="targetPoint" />
          </mxGeometry>
        </mxCell>
        <mxCell id="EAhvlWzYIKwALGRt6ynT-40" value="" style="endArrow=classic;html=1;edgeStyle=orthogonalEdgeStyle;exitX=0.75;exitY=0;exitDx=0;exitDy=0;entryX=0.25;entryY=0;entryDx=0;entryDy=0;" edge="1" parent="1">
          <mxGeometry width="50" height="50" relative="1" as="geometry">
            <mxPoint x="760" y="180" as="sourcePoint" />
            <mxPoint x="720" y="180" as="targetPoint" />
            <Array as="points">
              <mxPoint x="760" y="145" />
              <mxPoint x="720" y="145" />
            </Array>
          </mxGeometry>
        </mxCell>
        <mxCell id="EAhvlWzYIKwALGRt6ynT-41" value="10.核查" style="text;html=1;strokeColor=none;fillColor=none;align=center;verticalAlign=middle;whiteSpace=wrap;rounded=0;" vertex="1" parent="1">
          <mxGeometry x="720" y="120" width="50" height="20" as="geometry" />
        </mxCell>
        <mxCell id="EAhvlWzYIKwALGRt6ynT-45" value="" style="endArrow=none;html=1;entryX=0;entryY=0.5;entryDx=0;entryDy=0;exitX=1;exitY=0.5;exitDx=0;exitDy=0;" edge="1" parent="1" source="EAhvlWzYIKwALGRt6ynT-5" target="EAhvlWzYIKwALGRt6ynT-4">
          <mxGeometry width="50" height="50" relative="1" as="geometry">
            <mxPoint x="400" y="340" as="sourcePoint" />
            <mxPoint x="450" y="290" as="targetPoint" />
          </mxGeometry>
        </mxCell>
        <mxCell id="EAhvlWzYIKwALGRt6ynT-46" value="" style="endArrow=classic;html=1;" edge="1" parent="1">
          <mxGeometry width="50" height="50" relative="1" as="geometry">
            <mxPoint x="670" y="190" as="sourcePoint" />
            <mxPoint x="590" y="190" as="targetPoint" />
          </mxGeometry>
        </mxCell>
        <mxCell id="EAhvlWzYIKwALGRt6ynT-48" value="11违规信息" style="text;html=1;strokeColor=none;fillColor=none;align=center;verticalAlign=middle;whiteSpace=wrap;rounded=0;" vertex="1" parent="1">
          <mxGeometry x="600" y="170" width="70" height="20" as="geometry" />
        </mxCell>
        <mxCell id="EAhvlWzYIKwALGRt6ynT-49" value="12.处理" style="text;html=1;strokeColor=none;fillColor=none;align=center;verticalAlign=middle;whiteSpace=wrap;rounded=0;" vertex="1" parent="1">
          <mxGeometry x="85" y="130" width="50" height="20" as="geometry" />
        </mxCell>
        <mxCell id="EAhvlWzYIKwALGRt6ynT-52" value="13.举报成功" style="text;html=1;strokeColor=none;fillColor=none;align=center;verticalAlign=middle;whiteSpace=wrap;rounded=0;rotation=30;" vertex="1" parent="1">
          <mxGeometry x="240" y="340" width="90" height="20" as="geometry" />
        </mxCell>
        <mxCell id="EAhvlWzYIKwALGRt6ynT-53" value="" style="endArrow=classic;html=1;" edge="1" parent="1">
          <mxGeometry width="50" height="50" relative="1" as="geometry">
            <mxPoint x="260" y="325" as="sourcePoint" />
            <mxPoint x="340" y="370" as="targetPoint" />
          </mxGeometry>
        </mxCell>
        <mxCell id="EAhvlWzYIKwALGRt6ynT-54" value="14.浏览、评论、报名" style="text;html=1;strokeColor=none;fillColor=none;align=center;verticalAlign=middle;whiteSpace=wrap;rounded=0;rotation=30;" vertex="1" parent="1">
          <mxGeometry x="487.99" y="457.5" width="120" height="20" as="geometry" />
        </mxCell>
        <mxCell id="EAhvlWzYIKwALGRt6ynT-55" value="" style="endArrow=classic;html=1;" edge="1" parent="1">
          <mxGeometry width="50" height="50" relative="1" as="geometry">
            <mxPoint x="495" y="450" as="sourcePoint" />
            <mxPoint x="575" y="495" as="targetPoint" />
          </mxGeometry>
        </mxCell>
        <mxCell id="EAhvlWzYIKwALGRt6ynT-56" value="" style="endArrow=none;html=1;exitX=1;exitY=0.5;exitDx=0;exitDy=0;entryX=0;entryY=0.5;entryDx=0;entryDy=0;" edge="1" parent="1" source="EAhvlWzYIKwALGRt6ynT-6" target="EAhvlWzYIKwALGRt6ynT-7">
          <mxGeometry width="50" height="50" relative="1" as="geometry">
            <mxPoint x="650" y="670" as="sourcePoint" />
            <mxPoint x="640" y="620" as="targetPoint" />
          </mxGeometry>
        </mxCell>
        <mxCell id="EAhvlWzYIKwALGRt6ynT-57" value="" style="endArrow=classic;html=1;" edge="1" parent="1">
          <mxGeometry width="50" height="50" relative="1" as="geometry">
            <mxPoint x="680" y="610" as="sourcePoint" />
            <mxPoint x="550" y="610" as="targetPoint" />
          </mxGeometry>
        </mxCell>
        <mxCell id="EAhvlWzYIKwALGRt6ynT-59" value="15.用户评论、报名信息" style="text;html=1;strokeColor=none;fillColor=none;align=center;verticalAlign=middle;whiteSpace=wrap;rounded=0;" vertex="1" parent="1">
          <mxGeometry x="560" y="590" width="135" height="20" as="geometry" />
        </mxCell>
        <mxCell id="EAhvlWzYIKwALGRt6ynT-60" value="" style="endArrow=classic;html=1;edgeStyle=orthogonalEdgeStyle;exitX=0.75;exitY=0;exitDx=0;exitDy=0;entryX=0.25;entryY=0;entryDx=0;entryDy=0;" edge="1" parent="1">
          <mxGeometry width="50" height="50" relative="1" as="geometry">
            <mxPoint x="130" y="600" as="sourcePoint" />
            <mxPoint x="90" y="600" as="targetPoint" />
            <Array as="points">
              <mxPoint x="130" y="565" />
              <mxPoint x="90" y="565" />
            </Array>
          </mxGeometry>
        </mxCell>
        <mxCell id="EAhvlWzYIKwALGRt6ynT-61" value="16.处理" style="text;html=1;strokeColor=none;fillColor=none;align=center;verticalAlign=middle;whiteSpace=wrap;rounded=0;" vertex="1" parent="1">
          <mxGeometry x="85" y="550" width="50" height="20" as="geometry" />
        </mxCell>
        <mxCell id="EAhvlWzYIKwALGRt6ynT-62" value="" style="endArrow=classic;html=1;" edge="1" parent="1">
          <mxGeometry width="50" height="50" relative="1" as="geometry">
            <mxPoint x="160" y="630" as="sourcePoint" />
            <mxPoint x="250" y="630" as="targetPoint" />
          </mxGeometry>
        </mxCell>
        <mxCell id="EAhvlWzYIKwALGRt6ynT-63" value="18.官方反馈" style="text;html=1;strokeColor=none;fillColor=none;align=center;verticalAlign=middle;whiteSpace=wrap;rounded=0;rotation=30;" vertex="1" parent="1">
          <mxGeometry x="607.99" y="560" width="75" height="20" as="geometry" />
        </mxCell>
        <mxCell id="EAhvlWzYIKwALGRt6ynT-65" value="17.官方信息" style="text;html=1;strokeColor=none;fillColor=none;align=center;verticalAlign=middle;whiteSpace=wrap;rounded=0;" vertex="1" parent="1">
          <mxGeometry x="170" y="630" width="70" height="20" as="geometry" />
        </mxCell>
        <mxCell id="EAhvlWzYIKwALGRt6ynT-66" value="" style="endArrow=classic;html=1;" edge="1" parent="1">
          <mxGeometry width="50" height="50" relative="1" as="geometry">
            <mxPoint x="690" y="585" as="sourcePoint" />
            <mxPoint x="610" y="540" as="targetPoint" />
          </mxGeometry>
        </mxCell>
        <mxCell id="EAhvlWzYIKwALGRt6ynT-67" style="rounded=0;orthogonalLoop=1;jettySize=auto;html=1;exitX=0.75;exitY=0;exitDx=0;exitDy=0;entryX=0.5;entryY=1;entryDx=0;entryDy=0;endArrow=none;endFill=0;" edge="1" parent="1" source="EAhvlWzYIKwALGRt6ynT-68" target="EAhvlWzYIKwALGRt6ynT-69">
          <mxGeometry relative="1" as="geometry" />
        </mxCell>
        <mxCell id="EAhvlWzYIKwALGRt6ynT-68" value="官方组织" style="rounded=0;whiteSpace=wrap;html=1;" vertex="1" parent="1">
          <mxGeometry x="1205" y="410" width="80" height="40" as="geometry" />
        </mxCell>
        <mxCell id="EAhvlWzYIKwALGRt6ynT-69" value="管理员" style="rounded=0;whiteSpace=wrap;html=1;" vertex="1" parent="1">
          <mxGeometry x="1520" y="200" width="80" height="40" as="geometry" />
        </mxCell>
        <mxCell id="EAhvlWzYIKwALGRt6ynT-70" value="系统" style="rounded=0;whiteSpace=wrap;html=1;" vertex="1" parent="1">
          <mxGeometry x="890" y="200" width="80" height="40" as="geometry" />
        </mxCell>
        <mxCell id="EAhvlWzYIKwALGRt6ynT-71" value="用户" style="rounded=0;whiteSpace=wrap;html=1;" vertex="1" parent="1">
          <mxGeometry x="890" y="620" width="80" height="40" as="geometry" />
        </mxCell>
        <mxCell id="EAhvlWzYIKwALGRt6ynT-72" value="专栏" style="rounded=0;whiteSpace=wrap;html=1;" vertex="1" parent="1">
          <mxGeometry x="1520" y="620" width="80" height="40" as="geometry" />
        </mxCell>
        <mxCell id="EAhvlWzYIKwALGRt6ynT-73" style="rounded=0;orthogonalLoop=1;jettySize=auto;html=1;exitX=0.75;exitY=1;exitDx=0;exitDy=0;entryX=0.5;entryY=0;entryDx=0;entryDy=0;endArrow=none;endFill=0;" edge="1" parent="1" source="EAhvlWzYIKwALGRt6ynT-68" target="EAhvlWzYIKwALGRt6ynT-72">
          <mxGeometry relative="1" as="geometry">
            <mxPoint x="1295" y="550" as="sourcePoint" />
            <mxPoint x="1540" y="400" as="targetPoint" />
          </mxGeometry>
        </mxCell>
        <mxCell id="EAhvlWzYIKwALGRt6ynT-74" style="rounded=0;orthogonalLoop=1;jettySize=auto;html=1;entryX=0.25;entryY=0;entryDx=0;entryDy=0;endArrow=none;endFill=0;exitX=0.5;exitY=1;exitDx=0;exitDy=0;" edge="1" parent="1" source="EAhvlWzYIKwALGRt6ynT-70" target="EAhvlWzYIKwALGRt6ynT-68">
          <mxGeometry relative="1" as="geometry">
            <mxPoint x="960" y="240" as="sourcePoint" />
            <mxPoint x="1225" y="410" as="targetPoint" />
          </mxGeometry>
        </mxCell>
        <mxCell id="EAhvlWzYIKwALGRt6ynT-75" style="rounded=0;orthogonalLoop=1;jettySize=auto;html=1;exitX=0.75;exitY=0;exitDx=0;exitDy=0;entryX=0.5;entryY=1;entryDx=0;entryDy=0;endArrow=none;endFill=0;" edge="1" parent="1">
          <mxGeometry relative="1" as="geometry">
            <mxPoint x="970" y="620" as="sourcePoint" />
            <mxPoint x="1235" y="450" as="targetPoint" />
          </mxGeometry>
        </mxCell>
        <mxCell id="EAhvlWzYIKwALGRt6ynT-78" value="" style="endArrow=classic;html=1;edgeStyle=orthogonalEdgeStyle;exitX=0.75;exitY=0;exitDx=0;exitDy=0;entryX=0.25;entryY=0;entryDx=0;entryDy=0;" edge="1" parent="1" source="EAhvlWzYIKwALGRt6ynT-70" target="EAhvlWzYIKwALGRt6ynT-70">
          <mxGeometry width="50" height="50" relative="1" as="geometry">
            <mxPoint x="940" y="180" as="sourcePoint" />
            <mxPoint x="990" y="130" as="targetPoint" />
            <Array as="points">
              <mxPoint x="950" y="165" />
              <mxPoint x="910" y="165" />
            </Array>
          </mxGeometry>
        </mxCell>
        <mxCell id="EAhvlWzYIKwALGRt6ynT-79" value="4.注册" style="text;html=1;strokeColor=none;fillColor=none;align=center;verticalAlign=middle;whiteSpace=wrap;rounded=0;" vertex="1" parent="1">
          <mxGeometry x="910" y="90" width="40" height="20" as="geometry" />
        </mxCell>
        <mxCell id="EAhvlWzYIKwALGRt6ynT-80" value="" style="endArrow=classic;html=1;" edge="1" parent="1">
          <mxGeometry width="50" height="50" relative="1" as="geometry">
            <mxPoint x="930" y="250" as="sourcePoint" />
            <mxPoint x="980" y="280" as="targetPoint" />
          </mxGeometry>
        </mxCell>
        <mxCell id="EAhvlWzYIKwALGRt6ynT-81" value="6.注册成功 登录" style="text;html=1;strokeColor=none;fillColor=none;align=center;verticalAlign=middle;whiteSpace=wrap;rounded=0;rotation=30;" vertex="1" parent="1">
          <mxGeometry x="900" y="260" width="90" height="20" as="geometry" />
        </mxCell>
        <mxCell id="EAhvlWzYIKwALGRt6ynT-84" value="5.记录" style="text;html=1;strokeColor=none;fillColor=none;align=center;verticalAlign=middle;whiteSpace=wrap;rounded=0;" vertex="1" parent="1">
          <mxGeometry x="910" y="110" width="40" height="20" as="geometry" />
        </mxCell>
        <mxCell id="EAhvlWzYIKwALGRt6ynT-85" value="10.处理" style="text;html=1;strokeColor=none;fillColor=none;align=center;verticalAlign=middle;whiteSpace=wrap;rounded=0;" vertex="1" parent="1">
          <mxGeometry x="905" y="130" width="50" height="20" as="geometry" />
        </mxCell>
        <mxCell id="EAhvlWzYIKwALGRt6ynT-86" value="11.申请活动成功" style="text;html=1;strokeColor=none;fillColor=none;align=center;verticalAlign=middle;whiteSpace=wrap;rounded=0;rotation=30;" vertex="1" parent="1">
          <mxGeometry x="980" y="310" width="90" height="20" as="geometry" />
        </mxCell>
        <mxCell id="EAhvlWzYIKwALGRt6ynT-87" value="" style="endArrow=classic;html=1;" edge="1" parent="1">
          <mxGeometry width="50" height="50" relative="1" as="geometry">
            <mxPoint x="1010" y="300" as="sourcePoint" />
            <mxPoint x="1060" y="330" as="targetPoint" />
          </mxGeometry>
        </mxCell>
        <mxCell id="EAhvlWzYIKwALGRt6ynT-90" value="1.填写申请信息" style="text;html=1;strokeColor=none;fillColor=none;align=center;verticalAlign=middle;whiteSpace=wrap;rounded=0;rotation=-30;" vertex="1" parent="1">
          <mxGeometry x="1270" y="350" width="90" height="20" as="geometry" />
        </mxCell>
        <mxCell id="EAhvlWzYIKwALGRt6ynT-91" value="" style="endArrow=classic;html=1;" edge="1" parent="1">
          <mxGeometry width="50" height="50" relative="1" as="geometry">
            <mxPoint x="1285" y="390" as="sourcePoint" />
            <mxPoint x="1370" y="340" as="targetPoint" />
          </mxGeometry>
        </mxCell>
        <mxCell id="EAhvlWzYIKwALGRt6ynT-92" value="" style="endArrow=classic;html=1;edgeStyle=orthogonalEdgeStyle;exitX=0.75;exitY=0;exitDx=0;exitDy=0;entryX=0.25;entryY=0;entryDx=0;entryDy=0;" edge="1" parent="1">
          <mxGeometry width="50" height="50" relative="1" as="geometry">
            <mxPoint x="1580" y="200" as="sourcePoint" />
            <mxPoint x="1540" y="200" as="targetPoint" />
            <Array as="points">
              <mxPoint x="1580" y="165" />
              <mxPoint x="1540" y="165" />
            </Array>
          </mxGeometry>
        </mxCell>
        <mxCell id="EAhvlWzYIKwALGRt6ynT-93" value="2/8.审核" style="text;html=1;strokeColor=none;fillColor=none;align=center;verticalAlign=middle;whiteSpace=wrap;rounded=0;" vertex="1" parent="1">
          <mxGeometry x="1540" y="140" width="50" height="20" as="geometry" />
        </mxCell>
        <mxCell id="EAhvlWzYIKwALGRt6ynT-94" value="" style="endArrow=none;html=1;entryX=0;entryY=0.5;entryDx=0;entryDy=0;exitX=1;exitY=0.5;exitDx=0;exitDy=0;" edge="1" parent="1" source="EAhvlWzYIKwALGRt6ynT-70" target="EAhvlWzYIKwALGRt6ynT-69">
          <mxGeometry width="50" height="50" relative="1" as="geometry">
            <mxPoint x="1220" y="360" as="sourcePoint" />
            <mxPoint x="1270" y="310" as="targetPoint" />
          </mxGeometry>
        </mxCell>
        <mxCell id="EAhvlWzYIKwALGRt6ynT-95" value="" style="endArrow=classic;html=1;" edge="1" parent="1">
          <mxGeometry width="50" height="50" relative="1" as="geometry">
            <mxPoint x="1490" y="210" as="sourcePoint" />
            <mxPoint x="1410" y="210" as="targetPoint" />
          </mxGeometry>
        </mxCell>
        <mxCell id="EAhvlWzYIKwALGRt6ynT-96" value="3.审核信息" style="text;html=1;strokeColor=none;fillColor=none;align=center;verticalAlign=middle;whiteSpace=wrap;rounded=0;" vertex="1" parent="1">
          <mxGeometry x="1420" y="190" width="70" height="20" as="geometry" />
        </mxCell>
        <mxCell id="EAhvlWzYIKwALGRt6ynT-100" value="12.发布活动" style="text;html=1;strokeColor=none;fillColor=none;align=center;verticalAlign=middle;whiteSpace=wrap;rounded=0;rotation=30;" vertex="1" parent="1">
          <mxGeometry x="1307.99" y="477.5" width="120" height="20" as="geometry" />
        </mxCell>
        <mxCell id="EAhvlWzYIKwALGRt6ynT-101" value="" style="endArrow=classic;html=1;" edge="1" parent="1">
          <mxGeometry width="50" height="50" relative="1" as="geometry">
            <mxPoint x="1315" y="470" as="sourcePoint" />
            <mxPoint x="1395" y="515" as="targetPoint" />
          </mxGeometry>
        </mxCell>
        <mxCell id="EAhvlWzYIKwALGRt6ynT-102" value="" style="endArrow=none;html=1;exitX=1;exitY=0.5;exitDx=0;exitDy=0;entryX=0;entryY=0.5;entryDx=0;entryDy=0;" edge="1" parent="1" source="EAhvlWzYIKwALGRt6ynT-71" target="EAhvlWzYIKwALGRt6ynT-72">
          <mxGeometry width="50" height="50" relative="1" as="geometry">
            <mxPoint x="1470" y="690" as="sourcePoint" />
            <mxPoint x="1460" y="640" as="targetPoint" />
          </mxGeometry>
        </mxCell>
        <mxCell id="EAhvlWzYIKwALGRt6ynT-103" value="" style="endArrow=classic;html=1;" edge="1" parent="1">
          <mxGeometry width="50" height="50" relative="1" as="geometry">
            <mxPoint x="1500" y="630" as="sourcePoint" />
            <mxPoint x="1370" y="630" as="targetPoint" />
          </mxGeometry>
        </mxCell>
        <mxCell id="EAhvlWzYIKwALGRt6ynT-104" value="16.官方信息" style="text;html=1;strokeColor=none;fillColor=none;align=center;verticalAlign=middle;whiteSpace=wrap;rounded=0;" vertex="1" parent="1">
          <mxGeometry x="1380" y="610" width="135" height="20" as="geometry" />
        </mxCell>
        <mxCell id="EAhvlWzYIKwALGRt6ynT-107" value="" style="endArrow=classic;html=1;" edge="1" parent="1">
          <mxGeometry width="50" height="50" relative="1" as="geometry">
            <mxPoint x="980" y="650" as="sourcePoint" />
            <mxPoint x="1070" y="650" as="targetPoint" />
          </mxGeometry>
        </mxCell>
        <mxCell id="EAhvlWzYIKwALGRt6ynT-108" value="14.用户评论" style="text;html=1;strokeColor=none;fillColor=none;align=center;verticalAlign=middle;whiteSpace=wrap;rounded=0;rotation=30;" vertex="1" parent="1">
          <mxGeometry x="1427.99" y="580" width="75" height="20" as="geometry" />
        </mxCell>
        <mxCell id="EAhvlWzYIKwALGRt6ynT-109" value="13.活动参与" style="text;html=1;strokeColor=none;fillColor=none;align=center;verticalAlign=middle;whiteSpace=wrap;rounded=0;" vertex="1" parent="1">
          <mxGeometry x="990" y="650" width="70" height="20" as="geometry" />
        </mxCell>
        <mxCell id="EAhvlWzYIKwALGRt6ynT-110" value="" style="endArrow=classic;html=1;" edge="1" parent="1">
          <mxGeometry width="50" height="50" relative="1" as="geometry">
            <mxPoint x="1510" y="605" as="sourcePoint" />
            <mxPoint x="1430" y="560" as="targetPoint" />
          </mxGeometry>
        </mxCell>
        <mxCell id="EAhvlWzYIKwALGRt6ynT-111" value="7.填写活动信息" style="text;html=1;strokeColor=none;fillColor=none;align=center;verticalAlign=middle;whiteSpace=wrap;rounded=0;rotation=-30;" vertex="1" parent="1">
          <mxGeometry x="1380" y="290" width="90" height="20" as="geometry" />
        </mxCell>
        <mxCell id="EAhvlWzYIKwALGRt6ynT-112" value="" style="endArrow=classic;html=1;" edge="1" parent="1">
          <mxGeometry width="50" height="50" relative="1" as="geometry">
            <mxPoint x="1390" y="330" as="sourcePoint" />
            <mxPoint x="1475" y="280" as="targetPoint" />
          </mxGeometry>
        </mxCell>
        <mxCell id="EAhvlWzYIKwALGRt6ynT-113" value="9.活动信息" style="text;html=1;strokeColor=none;fillColor=none;align=center;verticalAlign=middle;whiteSpace=wrap;rounded=0;" vertex="1" parent="1">
          <mxGeometry x="1307.99" y="190" width="70" height="20" as="geometry" />
        </mxCell>
        <mxCell id="EAhvlWzYIKwALGRt6ynT-114" value="" style="endArrow=classic;html=1;" edge="1" parent="1">
          <mxGeometry width="50" height="50" relative="1" as="geometry">
            <mxPoint x="1382.99" y="210" as="sourcePoint" />
            <mxPoint x="1302.99" y="210" as="targetPoint" />
          </mxGeometry>
        </mxCell>
        <mxCell id="EAhvlWzYIKwALGRt6ynT-115" value="15.对用户进行反馈" style="text;html=1;strokeColor=none;fillColor=none;align=center;verticalAlign=middle;whiteSpace=wrap;rounded=0;rotation=30;" vertex="1" parent="1">
          <mxGeometry x="1420" y="540" width="120" height="20" as="geometry" />
        </mxCell>
        <mxCell id="EAhvlWzYIKwALGRt6ynT-116" value="" style="endArrow=classic;html=1;entryX=1;entryY=1;entryDx=0;entryDy=0;" edge="1" parent="1" target="EAhvlWzYIKwALGRt6ynT-115">
          <mxGeometry width="50" height="50" relative="1" as="geometry">
            <mxPoint x="1420" y="530" as="sourcePoint" />
            <mxPoint x="1500" y="575" as="targetPoint" />
          </mxGeometry>
        </mxCell>
      </root>
    </mxGraphModel>
  </diagram>
</mxfile>
